<svg xmlns="http://www.w3.org/2000/svg" viewBox="0 0 512 512"><path d="M401.067 287.834c-23.552 0-42.667 19.115-42.667 42.667s19.115 42.667 42.667 42.667c23.552 0 42.667-19.115 42.667-42.667s-19.115-42.667-42.667-42.667zm0 68.266c-14.08 0-25.6-11.52-25.6-25.6 0-14.08 11.52-25.6 25.6-25.6s25.6 11.52 25.6 25.6c0 14.08-11.52 25.6-25.6 25.6z"/><circle cx="401.067" cy="330.5" r="25.6" fill="#fff"/><path d="M110.933 287.834c-23.552 0-42.667 19.115-42.667 42.667s19.115 42.667 42.667 42.667S153.6 354.052 153.6 330.5s-19.115-42.666-42.667-42.666zm0 68.266c-14.08 0-25.6-11.52-25.6-25.6 0-14.08 11.52-25.6 25.6-25.6s25.6 11.52 25.6 25.6c0 14.08-11.52 25.6-25.6 25.6z"/><circle cx="110.933" cy="330.5" r="25.6" fill="#fff"/><path d="M503.467 287.834v-51.2c0-3.669-2.389-6.912-5.803-8.107l-48.213-16.043c-18.091-30.72-43.008-59.904-98.133-69.547-.085-.085-.171-.085-.256-.085-101.717-14.08-178.091 8.875-227.157 68.181-56.661.853-115.371 18.688-115.371 51.2v25.6c-4.693 0-8.533 3.84-8.533 8.533V330.5c0 4.693 3.84 8.533 8.533 8.533h34.133c4.693 0 8.533-3.84 8.533-8.533 0-32.939 26.795-59.733 59.733-59.733s59.733 26.795 59.733 59.733c0 4.693 3.84 8.533 8.533 8.533h153.6c4.693 0 8.533-3.84 8.533-8.533 0-32.939 26.795-59.733 59.733-59.733S460.8 297.562 460.8 330.5c0 4.693 3.84 8.533 8.533 8.533h34.133c4.693 0 8.533-3.84 8.533-8.533v-34.133c.001-4.693-3.839-8.533-8.532-8.533zM392.96 175.706c14.848 9.045 25.856 21.077 35.413 35.328h-35.755l.342-35.328zm-102.827-19.798c18.261-.256 37.632.939 58.368 3.84 10.325 1.792 19.371 4.352 27.477 7.595l-.427 43.691h-85.419v-55.126zm-17.066.683v54.443H146.944c31.659-32.598 73.387-50.688 126.123-54.443zm221.866 165.376h-17.579c-4.181-38.315-36.864-68.267-76.288-68.267s-72.107 29.952-76.288 68.267H187.221c-4.181-38.315-36.864-68.267-76.288-68.267s-72.107 29.952-76.288 68.267H17.067V304.9c4.693 0 8.533-3.84 8.533-8.533v-25.6h8.533c4.693 0 8.533-3.84 8.533-8.533s-3.84-8.533-8.533-8.533h-4.437c11.52-12.544 46.848-25.6 98.304-25.6h314.368l44.032 14.677V253.7h-8.533c-4.693 0-8.533 3.84-8.533 8.533s3.84 8.533 8.533 8.533h8.533v25.6c0 4.693 3.84 8.533 8.533 8.533v17.068z"/><path d="M128 330.5c0-12.621-9.276-23.108-21.333-25.165-12.058 2.057-21.333 12.544-21.333 25.165 0 12.621 9.276 23.108 21.333 25.165C118.724 353.609 128 343.121 128 330.5z" fill="#fff"/><path d="M110.933 304.9c-1.459 0-2.867.196-4.267.435C118.724 307.392 128 317.88 128 330.5c0 12.621-9.276 23.108-21.333 25.165 1.399.239 2.807.435 4.267.435 14.08 0 25.6-11.52 25.6-25.6-.001-14.08-11.521-25.6-25.601-25.6z" fill="#f4f4f4"/><path d="M418.133 330.065c0-12.621-9.276-23.108-21.333-25.165-12.058 2.057-21.333 12.544-21.333 25.165 0 12.621 9.276 23.108 21.333 25.165 12.058-2.048 21.333-12.544 21.333-25.165z" fill="#fff"/><path d="M401.067 304.9c-1.459 0-2.867.196-4.267.435 12.058 2.057 21.333 12.544 21.333 25.165 0 12.621-9.276 23.108-21.333 25.165 1.399.239 2.807.435 4.267.435 14.08 0 25.6-11.52 25.6-25.6 0-14.08-11.52-25.6-25.6-25.6z" fill="#f4f4f4"/><path d="M392.96 176.004l-.213 21.922h18.475c-5.436-8.106-11.452-15.394-18.262-21.922zm-102.827-20.096v42.018h75.008l.333-34.116c3.635 1.084 7.202 2.21 10.505 3.533-8.107-3.243-17.152-5.803-27.477-7.595-20.737-2.901-40.107-4.096-58.369-3.84zm-128.802 42.019h101.325v-40.209c3.465-.384 6.844-.87 10.411-1.126-47.539 3.388-86.05 18.526-116.386 45.338 1.544-1.35 3.072-2.706 4.65-4.003z" fill="#fff"/><g fill="#f4f4f4"><path d="M392.747 197.927l-.128 13.107.128-13.107zm.213-21.923v-.298zm35.413 35.03c-8.644-14.933-20.565-26.283-35.413-35.328 14.848 9.045 25.856 21.077 35.413 35.328z"/><path d="M392.96 175.706v.299c6.818 6.528 12.826 13.815 18.261 21.922h-18.475l-.128 13.107h35.755c-9.557-14.251-20.565-26.283-35.413-35.328zm-27.819 22.221h-75.008v13.107h85.419l.427-43.691c-3.302-1.323-6.869-2.449-10.505-3.533l-.333 34.117zm-218.197 13.107c3.123-3.217 6.417-6.178 9.737-9.105-3.337 2.901-6.614 5.888-9.737 9.105z"/><path d="M262.656 197.927H161.331c-1.579 1.297-3.106 2.654-4.651 4.002-3.319 2.935-6.622 5.897-9.737 9.105h126.123v-54.443c-3.558.256-6.946.742-10.411 1.126v40.21z"/></g><path d="M185.754 313.511c-.06-.256-.137-.512-.196-.768.068.256.144.503.196.768zm140.68-.76c-.06.247-.137.495-.188.751.06-.256.128-.495.188-.751zm-290.133 0c-.06.247-.137.495-.188.751.06-.256.128-.495.188-.751zm439.586.76c-.06-.256-.137-.512-.196-.768.068.256.145.503.196.768zm10.513-17.144v-25.6h-8.533c-4.693 0-8.533-3.84-8.533-8.533s3.84-8.533 8.533-8.533h8.533v-10.923L442.368 228.1H128c-51.456 0-86.784 13.056-98.304 25.6h4.437c4.693 0 8.533 3.84 8.533 8.533s-3.84 8.533-8.533 8.533H25.6v25.6c0 4.693-3.84 8.533-8.533 8.533h21.555c10.547-29.764 38.98-51.2 72.311-51.2s61.756 21.436 72.311 51.2h145.519c10.547-29.764 38.98-51.2 72.311-51.2s61.756 21.436 72.311 51.2h21.547c-4.692.001-8.532-3.839-8.532-8.532z" fill="#0091ea"/><g fill="#2979ff"><path d="M36.113 313.502c-.623 2.773-1.152 5.589-1.468 8.465.316-2.876.82-5.7 1.468-8.465zm2.509-8.602a75.336 75.336 0 00-2.321 7.851 81.184 81.184 0 012.321-7.851z"/><path d="M17.067 321.967h17.579c.316-2.876.836-5.692 1.468-8.465.06-.256.128-.495.188-.751a75.652 75.652 0 012.321-7.851H17.067v17.067zm460.288 0c-.316-2.876-.836-5.683-1.468-8.457a70.822 70.822 0 011.468 8.457zm-3.977-17.067a81.01 81.01 0 012.321 7.842 78.191 78.191 0 00-2.321-7.842z"/><path d="M473.378 304.9a75.826 75.826 0 012.321 7.842c.06.256.137.512.196.768.623 2.773 1.152 5.581 1.468 8.457h17.57V304.9h-21.555zm-144.623 0a75.336 75.336 0 00-2.321 7.851 81.753 81.753 0 012.321-7.851zm-2.509 8.602c-.623 2.773-1.152 5.589-1.468 8.465.316-2.876.82-5.7 1.468-8.465zm-139.025 8.465c-.316-2.876-.836-5.683-1.468-8.457a70.622 70.622 0 011.468 8.457zm-3.976-17.067a81.01 81.01 0 012.321 7.842 78.455 78.455 0 00-2.321-7.842z"/><path d="M185.557 312.743c.06.256.137.512.196.768.623 2.773 1.152 5.581 1.468 8.457h137.557c.316-2.876.836-5.692 1.468-8.465.06-.256.128-.495.188-.751a75.898 75.898 0 012.321-7.851h-145.51a75.961 75.961 0 012.312 7.842z"/></g></svg>