<svg xmlns="http://www.w3.org/2000/svg" viewBox="0 0 512 512"><g transform="translate(0 -1)"><path fill="#a4c2f7" d="M502.519 408.708l-161.186 85.333V105.3l161.186-85.333z"/><path fill="#e3e7f2" d="M474.074 418.189l-132.741 75.852V105.3l132.741-66.37z"/><path fill="#a4c2f7" d="M341.333 494.041l-161.185-66.37V19.967L341.333 105.3z"/><path fill="#e3e7f2" d="M312.889 484.56l-132.741-66.371V19.967l132.741 75.852z"/><path fill="#a4c2f7" d="M180.148 427.671l-75.852 28.444V48.412l75.852-28.445z"/><path fill="#fff" d="M85.333 456.115L9.481 484.56V76.856l75.852-28.444z"/><path fill="#e3e7f2" d="M151.704 427.671L37.926 475.078V67.375l113.778-47.408z"/><circle cx="104.296" cy="133.745" r="37.926" fill="#7facfa"/><path d="M84.405 96.872a9.254 9.254 0 01-8.553 6.674v57.401a9.687 9.687 0 011.58-.322 9.464 9.464 0 019.724 9.139c16.331-5.041 27.239-20.423 26.594-37.502s-12.681-31.594-29.345-35.39z" fill="#a4c2f7"/><g fill="#428dff"><path d="M9.481 494.041A9.477 9.477 0 010 484.56V76.856a9.472 9.472 0 016.481-8.991l170.667-56.889a9.391 9.391 0 018.542 1.296 9.486 9.486 0 013.94 7.694V427.67a9.472 9.472 0 01-6.481 8.991L12.482 493.55a9.308 9.308 0 01-3.001.491zm9.482-410.352v387.713l151.704-50.565V33.125L18.963 83.689zm322.37 419.834a9.488 9.488 0 01-9.481-9.481V105.3a9.476 9.476 0 015.046-8.38l161.185-85.333A9.483 9.483 0 01512 19.967v388.741a9.476 9.476 0 01-5.046 8.38l-161.185 85.333a9.526 9.526 0 01-4.436 1.102zm9.482-392.51v367.278l142.222-75.296V35.717l-142.222 75.296z"/><path d="M341.333 503.523a9.417 9.417 0 01-3.611-.713l-161.185-66.37a9.484 9.484 0 01-5.87-8.768V19.967a9.485 9.485 0 0113.917-8.38L345.769 96.92a9.476 9.476 0 015.046 8.38v388.741a9.474 9.474 0 01-9.482 9.482zM189.63 421.319l142.222 58.565v-368.87L189.63 35.717v385.602zm-85.334-211.722a9.477 9.477 0 01-9.481-9.481v-28.444a9.481 9.481 0 0118.962 0v28.444a9.477 9.477 0 01-9.481 9.481z"/><path d="M104.296 181.152c-26.182 0-47.407-21.225-47.407-47.407s21.225-47.407 47.407-47.407 47.407 21.225 47.407 47.407c-.03 26.17-21.237 47.377-47.407 47.407zm0-75.852c-15.709 0-28.444 12.735-28.444 28.444s12.735 28.444 28.444 28.444 28.444-12.735 28.444-28.444c-.016-15.701-12.741-28.426-28.444-28.444zM66.384 418.189c-.435 0-.869-.028-1.301-.083-5.187-.716-8.814-5.497-8.107-10.686a151.301 151.301 0 0160.972-97.5c37.981-25.528 88.403-30.463 149.889-14.694a9.787 9.787 0 011.958.741c.676.352 68.088 34.037 115.935 3.009 38.083-24.694 55.051-83.315 50.43-174.232a9.481 9.481 0 0118.936-.963c4.995 98.231-14.903 162.546-59.139 191.157-54.255 35.093-124.213 3.093-133.796-1.593-55.569-14.074-100.532-9.935-133.634 12.306a133.464 133.464 0 00-52.764 84.343 9.48 9.48 0 01-9.379 8.195zm56.875-142.222a9.448 9.448 0 01-6.703-2.778L78.63 235.263a9.48 9.48 0 0113.406-13.406l37.926 37.926a9.48 9.48 0 01-6.703 16.184z"/><path d="M85.333 275.967a9.482 9.482 0 01-6.704-16.185l37.926-37.926a9.48 9.48 0 0113.406 13.406l-37.926 37.926a9.441 9.441 0 01-6.702 2.779z"/></g></g></svg>